<svg width="1200" height="630" viewBox="0 0 1200 630" xmlns="http://www.w3.org/2000/svg">
  <defs>
    <pattern id="grid" width="48" height="48" patternUnits="userSpaceOnUse">
      <path d="M 48 0 L 0 0 0 48" fill="none" stroke="#1a4060" stroke-width="0.8" opacity="0.5"/>
    </pattern>
    <radialGradient id="glow" cx="50%" cy="30%" r="60%">
      <stop offset="0%" stop-color="#00ffe7" stop-opacity="0.12"/>
      <stop offset="100%" stop-color="#020b14" stop-opacity="0"/>
    </radialGradient>
    <radialGradient id="glowRight" cx="85%" cy="70%" r="40%">
      <stop offset="0%" stop-color="#a78bfa" stop-opacity="0.10"/>
      <stop offset="100%" stop-color="#020b14" stop-opacity="0"/>
    </radialGradient>
    <linearGradient id="cyanGrad" x1="0%" y1="0%" x2="100%" y2="0%">
      <stop offset="0%" stop-color="#00ffe7"/>
      <stop offset="50%" stop-color="#a78bfa"/>
      <stop offset="100%" stop-color="#00ffe7"/>
    </linearGradient>
    <linearGradient id="titleGrad" x1="0%" y1="0%" x2="100%" y2="0%">
      <stop offset="0%" stop-color="#00ffe7"/>
      <stop offset="40%" stop-color="#e0f7fa"/>
      <stop offset="70%" stop-color="#a78bfa"/>
      <stop offset="100%" stop-color="#00ffe7"/>
    </linearGradient>
    <clipPath id="clip">
      <rect width="1200" height="630"/>
    </clipPath>
  </defs>

  <!-- Background -->
  <rect width="1200" height="630" fill="#020b14"/>
  <rect width="1200" height="630" fill="url(#grid)" clip-path="url(#clip)"/>
  <rect width="1200" height="630" fill="url(#glow)"/>
  <rect width="1200" height="630" fill="url(#glowRight)"/>

  <!-- Corner brackets — top left -->
  <line x1="40" y1="40" x2="160" y2="40" stroke="#00ffe7" stroke-width="1.5" opacity="0.6"/>
  <line x1="40" y1="40" x2="40" y2="140" stroke="#00ffe7" stroke-width="1.5" opacity="0.6"/>
  <line x1="40" y1="40" x2="70"  y2="40" stroke="#00ffe7" stroke-width="3"   opacity="1"/>
  <line x1="40" y1="40" x2="40"  y2="70" stroke="#00ffe7" stroke-width="3"   opacity="1"/>

  <!-- Corner brackets — top right -->
  <line x1="1160" y1="40" x2="1040" y2="40"  stroke="#a78bfa" stroke-width="1.5" opacity="0.6"/>
  <line x1="1160" y1="40" x2="1160" y2="140" stroke="#a78bfa" stroke-width="1.5" opacity="0.6"/>
  <line x1="1160" y1="40" x2="1130" y2="40"  stroke="#a78bfa" stroke-width="3"   opacity="1"/>
  <line x1="1160" y1="40" x2="1160" y2="70"  stroke="#a78bfa" stroke-width="3"   opacity="1"/>

  <!-- Corner brackets — bottom left -->
  <line x1="40" y1="590" x2="160" y2="590" stroke="#00ffe7" stroke-width="1.5" opacity="0.6"/>
  <line x1="40" y1="590" x2="40"  y2="490" stroke="#00ffe7" stroke-width="1.5" opacity="0.6"/>
  <line x1="40" y1="590" x2="70"  y2="590" stroke="#00ffe7" stroke-width="3"   opacity="1"/>
  <line x1="40" y1="590" x2="40"  y2="560" stroke="#00ffe7" stroke-width="3"   opacity="1"/>

  <!-- Corner brackets — bottom right -->
  <line x1="1160" y1="590" x2="1040" y2="590" stroke="#a78bfa" stroke-width="1.5" opacity="0.6"/>
  <line x1="1160" y1="590" x2="1160" y2="490" stroke="#a78bfa" stroke-width="1.5" opacity="0.6"/>
  <line x1="1160" y1="590" x2="1130" y2="590" stroke="#a78bfa" stroke-width="3"   opacity="1"/>
  <line x1="1160" y1="590" x2="1160" y2="560" stroke="#a78bfa" stroke-width="3"   opacity="1"/>

  <!-- Side accent bars -->
  <rect x="80"   y="180" width="3" height="270" rx="2" fill="url(#cyanGrad)" opacity="0.7"/>
  <rect x="1117" y="180" width="3" height="270" rx="2" fill="url(#cyanGrad)" opacity="0.7"/>

  <!-- Ghost DB icon -->
  <g opacity="0.055" transform="translate(920,180)">
    <ellipse cx="100" cy="36"  rx="100" ry="28" fill="#00ffe7"/>
    <rect x="0" y="36" width="200" height="120" fill="#00ffe7"/>
    <ellipse cx="100" cy="156" rx="100" ry="28" fill="#00ffe7"/>
    <ellipse cx="100" cy="96"  rx="100" ry="28" fill="#020b14"/>
    <ellipse cx="100" cy="96"  rx="100" ry="28" fill="none" stroke="#00ffe7" stroke-width="2"/>
  </g>

  <!-- Badge pill -->
  <rect x="456" y="98" width="288" height="34" rx="17" fill="none" stroke="#00ffe7" stroke-width="1" opacity="0.5"/>
  <text x="600" y="121" text-anchor="middle" font-family="'Courier New', Courier, monospace" font-size="12" fill="#00ffe7" letter-spacing="3" opacity="0.9">BCA-4002  •  4TH SEMESTER</text>

  <!-- Separator top -->
  <line x1="200" y1="152" x2="1000" y2="152" stroke="url(#cyanGrad)" stroke-width="0.8" opacity="0.4"/>

  <!-- Main title -->
  <text x="600" y="248" text-anchor="middle" font-family="'Courier New', Courier, monospace" font-size="62" font-weight="900" letter-spacing="3" fill="url(#titleGrad)">DATABASE</text>
  <text x="600" y="316" text-anchor="middle" font-family="'Courier New', Courier, monospace" font-size="62" font-weight="900" letter-spacing="3" fill="url(#titleGrad)">MANAGEMENT</text>
  <text x="600" y="384" text-anchor="middle" font-family="'Courier New', Courier, monospace" font-size="62" font-weight="900" letter-spacing="3" fill="url(#titleGrad)">SYSTEMS</text>

  <!-- Separator bottom -->
  <line x1="200" y1="408" x2="1000" y2="408" stroke="url(#cyanGrad)" stroke-width="0.8" opacity="0.4"/>

  <!-- Stat pills -->
  <rect x="228" y="430" width="190" height="44" rx="8" fill="#061424" stroke="#1a4060" stroke-width="1"/>
  <text x="323" y="449" text-anchor="middle" font-family="'Courier New', Courier, monospace" font-size="11" fill="#00ffe7" letter-spacing="2" opacity="0.7">QUESTIONS</text>
  <text x="323" y="466" text-anchor="middle" font-family="'Courier New', Courier, monospace" font-size="15" font-weight="700" fill="#e0f7fa">100 MCQs</text>

  <rect x="438" y="430" width="190" height="44" rx="8" fill="#061424" stroke="#1a4060" stroke-width="1"/>
  <text x="533" y="449" text-anchor="middle" font-family="'Courier New', Courier, monospace" font-size="11" fill="#a78bfa" letter-spacing="2" opacity="0.7">COVERAGE</text>
  <text x="533" y="466" text-anchor="middle" font-family="'Courier New', Courier, monospace" font-size="15" font-weight="700" fill="#e0f7fa">5 Full Units</text>

  <rect x="648" y="430" width="190" height="44" rx="8" fill="#061424" stroke="#1a4060" stroke-width="1"/>
  <text x="743" y="449" text-anchor="middle" font-family="'Courier New', Courier, monospace" font-size="11" fill="#39ff14" letter-spacing="2" opacity="0.7">INSTANT</text>
  <text x="743" y="466" text-anchor="middle" font-family="'Courier New', Courier, monospace" font-size="15" font-weight="700" fill="#e0f7fa">Live Feedback</text>

  <rect x="858" y="430" width="190" height="44" rx="8" fill="#061424" stroke="#1a4060" stroke-width="1"/>
  <text x="953" y="449" text-anchor="middle" font-family="'Courier New', Courier, monospace" font-size="11" fill="#ffd700" letter-spacing="2" opacity="0.7">SCORING</text>
  <text x="953" y="466" text-anchor="middle" font-family="'Courier New', Courier, monospace" font-size="15" font-weight="700" fill="#e0f7fa">Auto Graded</text>

  <!-- Footer rule -->
  <line x1="80" y1="500" x2="1120" y2="500" stroke="#1a4060" stroke-width="0.8" opacity="0.6"/>

  <!-- Footer text -->
  <text x="100"  y="528" font-family="'Courier New', Courier, monospace" font-size="13" fill="#3a6880" letter-spacing="2">// INTERACTIVE MCQ ASSESSMENT //</text>
  <text x="1100" y="528" text-anchor="end" font-family="'Courier New', Courier, monospace" font-size="13" fill="#00ffe7" letter-spacing="1" opacity="0.8">github.com/Babamosie333</text>
  <circle cx="600" cy="524" r="2" fill="#1a4060"/>

  <!-- Scan lines -->
  <rect x="0" y="0"   width="1200" height="2" fill="#00ffe7" opacity="0.04"/>
  <rect x="0" y="210" width="1200" height="1" fill="#00ffe7" opacity="0.03"/>
  <rect x="0" y="420" width="1200" height="1" fill="#00ffe7" opacity="0.03"/>
  <rect x="0" y="628" width="1200" height="2" fill="#00ffe7" opacity="0.04"/>
</svg>
